# xmcd
#
# Track frame offsets: 
#        150
#        13223
#        23985
#        40257
#        51891
#        66163
#        76240
#        90506
#        103427
#        114932
#        126660
#        141357
#
# Disc length: 2027 seconds
#
# Revision: 0
# Processed by: cddbd v1.5.2PL0 Copyright (c) Steve Scherf et al.
# Submitted via: ExactAudioCopy v1.0b3
#
DISCID=a907e90c
DTITLE=CHARLIE WALLER AND THE COUNTRY GENTLEMEN - CRYING IN THE CHAPEL
DYEAR=2000
DGENRE=Bluegrass
TTITLE0=Crying In The Chapel
TTITLE1=I Feel Like Traveling On
TTITLE2=Heaven Got An Angel
TTITLE3=Don't You Know That I'm Happy
TTITLE4=Nobody's Child
TTITLE5=I'll Never Die Just Be Promoted
TTITLE6=She Wore Pretty Dresses
TTITLE7=Jericho Road
TTITLE8=The Coal Mines Is A Good Place To Pray
TTITLE9=City Of God
TTITLE10=Keep Following Moses
TTITLE11=Two Men A Walkin'
EXTD=
EXTT0=
EXTT1=
EXTT2=
EXTT3=
EXTT4=
EXTT5=
EXTT6=
EXTT7=
EXTT8=
EXTT9=
EXTT10=
EXTT11=
PLAYORDER=
